<svg width="170" height="44" viewBox="0 0 170 44" fill="none" xmlns="http://www.w3.org/2000/svg">
<path d="M15.2459 0.00541032C12.0725 -0.0744408 10.4858 2.28246 10.4755 2.29534C9.53271 1.03832 7.85841 0.0182895 5.95229 0.000258637C3.21159 -0.0254998 0.867573 1.87547 0.285432 4.48995C-0.641872 7.57066 0.75166 11.2902 3.57478 13.6213C8.07478 17.3331 12.9431 17.4104 16.2067 17.3048C16.4102 17.2945 16.5751 17.1245 16.5751 16.9184C16.5751 16.7845 16.5055 16.666 16.3999 16.5964C16.3999 16.5964 16.3999 16.5964 16.4025 16.5938C16.0908 16.3723 15.2871 15.6717 15.3181 14.6903C15.3567 13.4616 16.0367 12.8589 16.2969 12.5936C16.9331 11.947 17.9222 11.0506 18.9114 10.0564C20.2688 8.69116 20.8381 7.21262 20.8381 5.74439C20.8407 2.62247 18.3112 0.0826856 15.2459 0.00541032Z" fill="#E40046"/>
<path d="M74.8176 8.66308H73.6996C73.4008 8.66308 73.187 8.73005 73.0531 8.864C72.9192 8.99794 72.8522 9.20658 72.8522 9.48993V13.8457C72.1516 13.145 71.0208 12.7947 69.4572 12.7947C68.3548 12.7947 67.3991 13.0317 66.5877 13.5082C65.7763 13.9848 65.1556 14.6519 64.7228 15.5071C64.2901 16.3649 64.0763 17.3488 64.0763 18.4667C64.0763 22.279 66.1911 24.1851 70.418 24.1851C71.4458 24.1851 72.4349 24.046 73.388 23.773C74.341 23.4974 75.1009 23.1522 75.665 22.7349V9.48993C75.665 9.20658 75.598 8.99794 75.4641 8.864C75.3301 8.73005 75.1138 8.66308 74.8176 8.66308ZM72.8522 21.617C72.2726 21.975 71.4818 22.1528 70.485 22.1528C69.2795 22.1528 68.3779 21.8694 67.7829 21.3053C67.1879 20.7386 66.8891 19.8165 66.8891 18.5363C66.8891 17.39 67.157 16.4885 67.6928 15.8342C68.2285 15.18 69.0399 14.8503 70.1269 14.8503C70.9306 14.8503 71.5849 15.0357 72.0923 15.4092C72.5972 15.7827 72.8522 16.3339 72.8522 17.0629V21.6196V21.617ZM104.628 11.2776H105.589C105.947 11.2776 106.225 11.1745 106.426 10.9659C106.627 10.7572 106.727 10.5048 106.727 10.206V9.73721C106.727 9.43841 106.627 9.18598 106.426 8.97733C106.225 8.76869 105.947 8.66566 105.589 8.66566H104.628C104.27 8.66566 103.994 8.77127 103.801 8.97733C103.608 9.18598 103.51 9.43841 103.51 9.73721V10.206C103.51 10.5048 103.605 10.7572 103.801 10.9659C103.994 11.1745 104.27 11.2776 104.628 11.2776ZM113.447 11.4553H114.609C114.893 11.4553 115.093 11.4218 115.212 11.3548C115.33 11.2879 115.444 11.1565 115.547 10.9633L117.02 8.08094C117.079 7.96245 117.11 7.85169 117.11 7.74608C117.11 7.49365 116.925 7.36743 116.551 7.36743H114.898C114.63 7.36743 114.447 7.40607 114.352 7.47819C114.254 7.55289 114.161 7.69456 114.073 7.90321L113.022 10.8294C112.992 10.8886 112.979 10.9788 112.979 11.0973C112.979 11.3342 113.136 11.4553 113.447 11.4553ZM126.981 33.1027C125.961 33.623 125.175 34.3648 124.624 35.3256C124.073 36.2864 123.797 37.3915 123.797 38.6433C123.797 40.2507 124.23 41.4974 125.093 42.3834C125.956 43.2695 127.117 43.7126 128.575 43.7126C129.544 43.7126 130.366 43.5812 131.043 43.3211C131.721 43.0609 132.29 42.6488 132.751 42.0821L132.929 42.9527C132.957 43.1021 133.014 43.2103 133.096 43.2773C133.178 43.3442 133.3 43.3777 133.464 43.3777H134.693C134.93 43.3777 135.097 43.3339 135.195 43.2438C135.293 43.1536 135.34 42.9991 135.34 42.775V33.6616C134.028 32.7678 132.429 32.3222 130.538 32.3222C129.183 32.3222 127.996 32.5824 126.976 33.1053M132.643 34.8002V39.1559C132.643 39.9158 132.341 40.5263 131.739 40.9873C131.136 41.4484 130.44 41.6802 129.65 41.6802C128.622 41.6802 127.859 41.4278 127.36 40.9204C126.86 40.4155 126.61 39.6247 126.61 38.5532C126.61 37.2421 126.968 36.2169 127.682 35.4699C128.395 34.7255 129.34 34.352 130.518 34.352C130.979 34.352 131.37 34.3855 131.69 34.4524C132.009 34.5194 132.326 34.6353 132.638 34.7976M163.478 32.6571H162.316C162.018 32.6571 161.804 32.724 161.67 32.858C161.536 32.9919 161.469 33.2006 161.469 33.4839V42.5741C161.469 42.8419 161.536 43.0429 161.67 43.1768C161.804 43.3107 162.02 43.3777 162.316 43.3777H163.478C163.79 43.3777 164.011 43.3107 164.137 43.1768C164.264 43.0429 164.328 42.8419 164.328 42.5741V33.4839C164.328 33.2006 164.261 32.9919 164.127 32.858C163.993 32.724 163.777 32.6571 163.481 32.6571M169.799 28.3915C169.665 28.2575 169.449 28.1906 169.15 28.1906H167.965C167.666 28.1906 167.455 28.2575 167.329 28.3915C167.203 28.5254 167.138 28.7341 167.138 29.0174V42.5741C167.138 42.8419 167.2 43.0429 167.329 43.1768C167.455 43.3107 167.666 43.3777 167.965 43.3777H169.15C169.462 43.3777 169.683 43.3107 169.81 43.1768C169.936 43.0429 170 42.8419 170 42.5741V29.0174C170 28.7341 169.933 28.5254 169.799 28.3915ZM105.699 13.1322H104.538C104.239 13.1322 104.025 13.1991 103.891 13.3331C103.757 13.467 103.69 13.6757 103.69 13.959V23.0492C103.69 23.3171 103.757 23.518 103.891 23.6519C104.025 23.7859 104.241 23.8528 104.538 23.8528H105.699C106.011 23.8528 106.233 23.7859 106.359 23.6519C106.485 23.518 106.549 23.3171 106.549 23.0492V13.959C106.549 13.6757 106.482 13.467 106.348 13.3331C106.215 13.1991 105.998 13.1322 105.702 13.1322M37.9212 13.9564V20.1436C37.9212 21.4831 38.2921 22.4928 39.0365 23.1702C39.7809 23.8477 40.7623 24.1877 41.9858 24.1877C43.758 24.1877 45.149 23.621 46.1613 22.4902L46.2514 23.4278C46.2669 23.5772 46.3107 23.6854 46.3854 23.7524C46.4601 23.8193 46.5786 23.8528 46.7434 23.8528H47.9953C48.2323 23.8528 48.3894 23.8116 48.4641 23.7292C48.5388 23.6468 48.5749 23.4871 48.5749 23.2501V13.959C48.5749 13.6757 48.5079 13.467 48.3739 13.3331C48.24 13.1991 48.0236 13.1322 47.7248 13.1322H46.5631C46.2643 13.1322 46.0505 13.1991 45.9166 13.3331C45.7826 13.467 45.7157 13.6757 45.7157 13.959V19.8319C45.7157 20.5171 45.4555 21.0761 44.9352 21.5062C44.4149 21.939 43.7658 22.1554 42.993 22.1554C42.264 22.1554 41.7128 21.9879 41.3393 21.6531C40.9658 21.3182 40.7804 20.7927 40.7804 20.0792V13.959C40.7804 13.6757 40.7134 13.467 40.5794 13.3331C40.4455 13.1991 40.2291 13.1322 39.9303 13.1322H38.7454C38.4466 13.1322 38.2354 13.1991 38.1092 13.3331C37.983 13.467 37.9186 13.6757 37.9186 13.959M58.6361 15.3088C58.971 15.6153 59.1384 16.133 59.1384 16.862V23.0492C59.1384 23.3171 59.2054 23.518 59.3393 23.6519C59.4733 23.7859 59.6896 23.8528 59.9884 23.8528H61.1733C61.4721 23.8528 61.6833 23.7859 61.8095 23.6519C61.9358 23.518 62.0002 23.3171 62.0002 23.0492V16.6843C62.0002 15.3886 61.6318 14.4175 60.8951 13.771C60.1584 13.1219 59.1873 12.7999 57.9818 12.7999C56.0912 12.7999 54.6384 13.3588 53.6261 14.4742L53.5823 13.5804C53.5668 13.2816 53.3968 13.1347 53.0697 13.1347H51.7972C51.5603 13.1347 51.4031 13.1785 51.3284 13.2687C51.2537 13.3588 51.2177 13.5134 51.2177 13.7375V23.0517C51.2177 23.3196 51.2846 23.5205 51.4186 23.6545C51.5525 23.7884 51.7689 23.8554 52.0651 23.8554H53.2268C53.5385 23.8554 53.76 23.7884 53.8862 23.6545C54.0125 23.5205 54.0769 23.3196 54.0769 23.0517V17.1325C54.0769 16.4627 54.3705 15.9141 54.9578 15.4916C55.5451 15.0666 56.2354 14.8554 57.0236 14.8554C57.768 14.8554 58.309 15.0074 58.6438 15.3139M28.1175 23.8503H29.3024C29.6141 23.8503 29.8356 23.7833 29.9618 23.6493C30.088 23.5154 30.1524 23.3145 30.1524 23.0466V17.3514H35.4226C35.7188 17.3514 35.9275 17.287 36.0485 17.1608C36.167 17.0346 36.2263 16.8285 36.2263 16.5477V15.945C36.2263 15.6616 36.167 15.4607 36.0485 15.3422C35.93 15.2238 35.7214 15.1645 35.4226 15.1645H30.1524V10.8551H37.4112C37.71 10.8551 37.9134 10.7933 38.0268 10.6645C38.1375 10.5383 38.1942 10.3322 38.1942 10.0515V9.44871C38.1942 9.16537 38.1375 8.96445 38.0268 8.84597C37.916 8.72748 37.71 8.66823 37.4112 8.66823H28.1201C27.8213 8.66823 27.6101 8.7352 27.4838 8.86915C27.3576 9.00309 27.2932 9.21174 27.2932 9.49508V23.0517C27.2932 23.3196 27.3551 23.5205 27.4838 23.6545C27.6101 23.7884 27.8213 23.8554 28.1201 23.8554M163.365 28.1906H162.404C162.046 28.1906 161.77 28.2936 161.577 28.5022C161.384 28.7109 161.286 28.9633 161.286 29.2621V29.7309C161.286 30.0297 161.384 30.2821 161.577 30.4908C161.77 30.6994 162.046 30.8025 162.404 30.8025H163.365C163.723 30.8025 164.001 30.6994 164.202 30.4908C164.403 30.2821 164.503 30.0297 164.503 29.7309V29.2621C164.503 28.9633 164.403 28.7109 164.202 28.5022C164.001 28.2936 163.723 28.1906 163.365 28.1906ZM112.621 33.2933C111.884 32.6442 110.913 32.3222 109.705 32.3222C107.814 32.3222 106.361 32.8812 105.349 33.9965L105.305 33.1027C105.29 32.8039 105.12 32.6571 104.793 32.6571H103.52C103.283 32.6571 103.126 32.7009 103.051 32.791C102.977 32.8812 102.941 33.0357 102.941 33.2598V42.5741C102.941 42.8419 103.008 43.0429 103.142 43.1768C103.275 43.3107 103.492 43.3777 103.788 43.3777H104.95C105.261 43.3777 105.483 43.3107 105.609 43.1768C105.735 43.0429 105.8 42.8419 105.8 42.5741V36.6548C105.8 35.9851 106.093 35.4364 106.681 35.014C107.268 34.5889 107.958 34.3777 108.747 34.3777C109.491 34.3777 110.029 34.5297 110.367 34.8362C110.702 35.1428 110.869 35.6605 110.869 36.3895V42.5766C110.869 42.8445 110.936 43.0454 111.07 43.1794C111.204 43.3133 111.42 43.3803 111.717 43.3803H112.901C113.198 43.3803 113.638 43.3133 113.764 43.1794C113.891 43.0454 113.955 42.8445 113.955 42.5766V36.2117C113.955 34.9161 113.36 33.945 112.623 33.2959M144.749 32.3222C142.858 32.3222 141.406 32.8812 140.393 33.9965L140.35 33.1027C140.334 32.8039 140.164 32.6571 139.837 32.6571H138.565C138.328 32.6571 138.17 32.7009 138.096 32.791C138.021 32.8812 137.985 33.0357 137.985 33.2598V42.5741C137.985 42.8419 138.052 43.0429 138.186 43.1768C138.32 43.3107 138.536 43.3777 138.832 43.3777H139.994C140.306 43.3777 140.527 43.3107 140.654 43.1768C140.78 43.0429 140.844 42.8419 140.844 42.5741V36.6548C140.844 35.9851 141.138 35.4364 141.725 35.014C142.312 34.5889 143.003 34.3777 143.791 34.3777C144.535 34.3777 145.074 34.5297 145.411 34.8362C145.746 35.1428 145.913 35.6605 145.913 36.3895V42.5766C145.913 42.8445 145.98 43.0454 146.114 43.1794C146.248 43.3133 146.465 43.3803 146.761 43.3803H147.946C148.242 43.3803 148.456 43.3133 148.582 43.1794C148.708 43.0454 148.773 42.8445 148.773 42.5766V36.2117C148.773 34.9161 148.404 33.945 147.668 33.2959C146.931 32.6468 145.96 32.3248 144.754 32.3248M101.037 21.3955C100.947 21.2461 100.859 21.1714 100.769 21.1714C100.694 21.1714 100.597 21.21 100.478 21.2821C100.045 21.5655 99.5997 21.7819 99.1387 21.9287C98.6776 22.0781 98.1341 22.1528 97.5082 22.1528C96.2718 22.1528 95.3341 21.8514 94.6928 21.2487C94.0539 20.6459 93.732 19.7418 93.732 18.5363C93.732 17.3308 94.0514 16.4859 94.6928 15.8239C95.3341 15.1619 96.2125 14.8297 97.3279 14.8297C97.9538 14.8297 98.4921 14.8992 98.9481 15.0409C99.4014 15.1825 99.8599 15.3938 100.321 15.6771C100.455 15.7673 100.558 15.811 100.633 15.811C100.707 15.811 100.79 15.7363 100.877 15.5869L101.48 14.536C101.555 14.4175 101.591 14.3119 101.591 14.2243C101.591 14.1213 101.524 14.0234 101.39 13.9333C100.823 13.5314 100.213 13.2404 99.5585 13.0626C98.9043 12.8849 98.1058 12.7947 97.1682 12.7947C95.9034 12.7947 94.7958 13.0369 93.8505 13.5211C92.9051 14.0054 92.1787 14.6803 91.6739 15.5432C91.1664 16.4061 90.914 17.4055 90.914 18.5363C90.914 20.3523 91.4678 21.7484 92.578 22.7246C93.6882 23.7009 95.2311 24.1877 97.2119 24.1877C98.1341 24.1877 98.9378 24.095 99.6229 23.9095C100.308 23.724 100.947 23.4355 101.545 23.0492C101.694 22.9461 101.769 22.8405 101.769 22.7375C101.769 22.6473 101.738 22.5675 101.678 22.4928L101.032 21.3981L101.037 21.3955ZM120.619 18.4925C120.619 16.7358 120.091 15.3474 119.032 14.3274C117.973 13.3073 116.479 12.7973 114.542 12.7973C112.605 12.7973 111.114 13.3073 110.063 14.3274C109.012 15.3474 108.489 16.7358 108.489 18.4925C108.489 20.2492 109.014 21.6376 110.063 22.6576C111.111 23.6777 112.605 24.1877 114.542 24.1877C116.479 24.1877 117.973 23.6777 119.032 22.6576C120.088 21.6376 120.619 20.2492 120.619 18.4925ZM116.956 21.1714C116.405 21.7819 115.601 22.0858 114.545 22.0858C113.489 22.0858 112.703 21.7767 112.144 21.1585C111.585 20.5403 111.307 19.6516 111.307 18.4899C111.307 17.3282 111.585 16.4473 112.144 15.842C112.703 15.2392 113.502 14.9378 114.545 14.9378C115.588 14.9378 116.405 15.2392 116.956 15.842C117.507 16.4447 117.783 17.3282 117.783 18.4899C117.783 19.6516 117.507 20.5583 116.956 21.1688M120.438 30.3105C120.698 29.9988 121.149 29.8417 121.791 29.8417C122.118 29.8417 122.406 29.8829 122.651 29.9653C122.896 30.0477 123.169 30.1688 123.465 30.3337C123.583 30.3929 123.666 30.4238 123.71 30.4238C123.784 30.4238 123.867 30.3568 123.954 30.2229L124.513 29.2853C124.573 29.2106 124.603 29.1282 124.603 29.0406C124.603 28.9221 124.536 28.8165 124.403 28.7289C123.627 28.1493 122.563 27.8583 121.208 27.8583C119.854 27.8583 118.864 28.2086 118.192 28.9092C117.522 29.6098 117.188 30.5835 117.188 31.8354V32.6622H116.137C115.838 32.6622 115.634 32.7215 115.524 32.8399C115.413 32.9584 115.356 33.1594 115.356 33.4427V33.9553C115.356 34.2386 115.413 34.4421 115.524 34.5709C115.634 34.6971 115.84 34.7615 116.137 34.7615H117.188V42.5792C117.188 42.8471 117.252 43.048 117.378 43.182C117.504 43.3159 117.718 43.3829 118.014 43.3829H119.199C119.511 43.3829 119.733 43.3159 119.859 43.182C119.985 43.048 120.049 42.8471 120.049 42.5792V34.7615H122.798C123.097 34.7615 123.303 34.6971 123.424 34.5709C123.542 34.4447 123.601 34.2386 123.601 33.9553V33.4427C123.601 33.1594 123.542 32.9584 123.424 32.8399C123.305 32.7215 123.097 32.6622 122.798 32.6622H120.049V31.7916C120.049 31.1219 120.181 30.6299 120.441 30.3182M99.2778 32.6571H98.1161C97.8173 32.6571 97.6035 32.724 97.4669 32.858C97.333 32.9919 97.266 33.2006 97.266 33.4839V42.5741C97.266 42.8419 97.333 43.0429 97.4669 43.1768C97.6009 43.3107 97.8173 43.3777 98.1161 43.3777H99.2778C99.5894 43.3777 99.811 43.3107 99.9372 43.1768C100.063 43.0429 100.128 42.8419 100.128 42.5741V33.4839C100.128 33.2006 100.061 32.9919 99.9269 32.858C99.7929 32.724 99.5766 32.6571 99.2778 32.6571ZM123.431 23.8503H124.593C124.905 23.8503 125.126 23.7833 125.253 23.6493C125.379 23.5154 125.443 23.3145 125.443 23.0466V17.1273C125.443 16.4576 125.737 15.9089 126.324 15.4865C126.911 15.0615 127.599 14.8503 128.39 14.8503C129.134 14.8503 129.675 15.0022 130.01 15.3088C130.345 15.6153 130.512 16.133 130.512 16.862V23.0492C130.512 23.3171 130.579 23.518 130.713 23.6519C130.847 23.7859 131.064 23.8528 131.362 23.8528H132.545C132.844 23.8528 133.055 23.7859 133.181 23.6519C133.307 23.518 133.372 23.3171 133.372 23.0492V16.6843C133.372 15.3886 133.003 14.4175 132.267 13.771C131.53 13.1219 130.559 12.7999 129.351 12.7999C127.46 12.7999 126.007 13.3588 124.995 14.4742L124.951 13.5804C124.936 13.2816 124.766 13.1347 124.439 13.1347H123.166C122.929 13.1347 122.772 13.1785 122.697 13.2687C122.623 13.3588 122.587 13.5134 122.587 13.7375V23.0517C122.587 23.3196 122.654 23.5205 122.787 23.6545C122.921 23.7884 123.138 23.8554 123.437 23.8554M159.019 41.1883C158.929 41.0543 158.842 40.9873 158.751 40.9873C158.661 40.9873 158.581 41.0183 158.507 41.0775C158.223 41.2707 157.963 41.4098 157.726 41.4896C157.487 41.5721 157.198 41.6133 156.856 41.6133C156.273 41.6133 155.866 41.4613 155.627 41.1548C155.387 40.8508 155.269 40.3537 155.269 39.6685V34.7564H157.904C158.203 34.7564 158.399 34.7049 158.496 34.5993C158.594 34.4962 158.641 34.3005 158.641 34.0197V33.4169C158.641 33.1336 158.592 32.9378 158.496 32.8245C158.399 32.7137 158.203 32.6571 157.904 32.6571H155.269V29.8442C155.269 29.5918 155.212 29.4012 155.101 29.275C154.991 29.1488 154.8 29.0844 154.532 29.0844H153.795C153.587 29.0844 153.443 29.1101 153.36 29.1616C153.278 29.2132 153.193 29.3291 153.103 29.5068C152.866 29.9241 152.69 30.2693 152.577 30.5449C152.466 30.8205 152.41 31.1141 152.41 31.4284V32.6571H151.137C150.838 32.6571 150.643 32.7137 150.545 32.8245C150.447 32.9353 150.398 33.1336 150.398 33.4169V34.0197C150.398 34.303 150.447 34.4962 150.545 34.5993C150.643 34.7049 150.838 34.7564 151.137 34.7564H152.41V39.7587C152.41 40.9951 152.729 41.9636 153.37 42.6616C154.012 43.3597 154.962 43.7126 156.23 43.7126C157.497 43.7126 158.612 43.4138 159.534 42.8188C159.684 42.7157 159.759 42.6101 159.759 42.5071C159.759 42.4169 159.728 42.3371 159.668 42.2624L159.022 41.1908L159.019 41.1883ZM99.1644 28.1906H98.2036C97.8456 28.1906 97.57 28.2936 97.3768 28.5022C97.1836 28.7109 97.0857 28.9633 97.0857 29.2621V29.7309C97.0857 30.0297 97.1836 30.2821 97.3768 30.4908C97.57 30.6994 97.8456 30.8025 98.2036 30.8025H99.1644C99.5225 30.8025 99.8007 30.6994 100.002 30.4908C100.202 30.2821 100.303 30.0297 100.303 29.7309V29.2621C100.303 28.9633 100.202 28.7109 100.002 28.5022C99.8007 28.2936 99.5225 28.1906 99.1644 28.1906ZM86.4758 22.5572L86.6536 23.4278C86.6819 23.5772 86.7386 23.6854 86.821 23.7524C86.9034 23.8193 87.0245 23.8528 87.1893 23.8528H88.418C88.655 23.8528 88.8224 23.809 88.9203 23.7189C89.0182 23.6287 89.0645 23.4742 89.0645 23.2501V14.1367C87.7534 13.2429 86.1538 12.7973 84.2632 12.7973C82.9083 12.7973 81.7208 13.0575 80.7008 13.5778C79.6807 14.0981 78.8951 14.84 78.3439 15.8007C77.7926 16.7615 77.517 17.8666 77.517 19.1184C77.517 20.7258 77.9498 21.975 78.8127 22.8586C79.6756 23.7446 80.8373 24.1877 82.2978 24.1877C83.2663 24.1877 84.088 24.0563 84.7655 23.7962C85.4429 23.536 86.0122 23.1239 86.4732 22.5572M81.082 21.3955C80.5823 20.8906 80.335 20.0998 80.335 19.0283C80.335 17.7172 80.6931 16.6894 81.4066 15.945C82.1201 15.2006 83.0654 14.8297 84.2426 14.8297C84.7036 14.8297 85.0952 14.8631 85.4146 14.9301C85.734 14.9971 86.0508 15.113 86.3625 15.2753V19.631C86.3625 20.3909 86.0611 21.0014 85.4584 21.4624C84.8556 21.9235 84.1601 22.1554 83.3694 22.1554C82.3416 22.1554 81.5791 21.9029 81.0794 21.3955M39.9638 40.8946C39.8737 40.7607 39.7835 40.6937 39.6959 40.6937C39.6521 40.6937 39.5543 40.7298 39.4049 40.8045C38.4028 41.3866 37.1278 41.6777 35.5746 41.6777C33.9029 41.6777 32.5737 41.196 31.5872 40.2326C30.6006 39.2693 30.1086 37.801 30.1086 35.8305C30.1086 33.86 30.5877 32.433 31.5434 31.4619C32.499 30.4908 33.8204 30.0065 35.5076 30.0065C36.9707 30.0065 38.1736 30.2899 39.1138 30.8566C39.2632 30.9312 39.3688 30.9673 39.428 30.9673C39.5027 30.9673 39.5852 30.9003 39.6753 30.7664L40.3012 29.6923C40.3759 29.5738 40.4146 29.4682 40.4146 29.378C40.4146 29.2724 40.3476 29.1771 40.2137 29.0869C39.6161 28.698 38.8845 28.3992 38.0191 28.1906C37.1536 27.9819 36.2108 27.8763 35.1959 27.8763C32.6561 27.8763 30.7037 28.564 29.3385 29.937C27.9707 31.3099 27.2881 33.2753 27.2881 35.8279C27.2881 38.3806 27.9836 40.346 29.3719 41.7189C30.7603 43.0944 32.7257 43.7796 35.2629 43.7796C37.5915 43.7796 39.3327 43.3751 40.4816 42.5689C40.6464 42.4659 40.7288 42.368 40.7288 42.2778C40.7288 42.2186 40.7057 42.1439 40.6619 42.0537L39.9664 40.8895L39.9638 40.8946ZM44.6364 33.1413C43.6138 33.6642 42.8256 34.4061 42.2718 35.3694C41.7205 36.3328 41.4423 37.4404 41.4423 38.6948C41.4423 40.3073 41.8751 41.5592 42.7406 42.4478C43.6061 43.3365 44.7729 43.7796 46.236 43.7796C47.2071 43.7796 48.0314 43.6482 48.7114 43.388C49.3914 43.1279 49.9632 42.7132 50.4243 42.1439L50.6046 43.0171C50.6355 43.1665 50.6896 43.2747 50.7721 43.3417C50.8545 43.4086 50.9755 43.4421 51.1404 43.4421H52.3717C52.6112 43.4421 52.7786 43.3983 52.8765 43.3082C52.9744 43.218 53.0233 43.0609 53.0233 42.8368V33.6977C51.7097 32.8013 50.1023 32.3531 48.2065 32.3531C46.8465 32.3531 45.6564 32.6159 44.6338 33.1362M50.3136 34.844V39.2126C50.3136 39.975 50.0122 40.5881 49.4069 41.0492C48.8015 41.5128 48.1035 41.7446 47.3127 41.7446C46.2824 41.7446 45.5173 41.4922 45.0176 40.9822C44.5179 40.4748 44.268 39.684 44.268 38.6073C44.268 37.2936 44.6261 36.2632 45.3422 35.5163C46.0583 34.7693 47.0062 34.3958 48.1859 34.3958C48.6496 34.3958 49.0411 34.4292 49.3631 34.4962C49.685 34.5632 50.0019 34.6791 50.3161 34.844M63.0614 32.6931C62.7162 32.469 62.2165 32.3583 61.5597 32.3583C60.1249 32.3583 58.9684 32.8889 58.0874 33.9476L58.0205 33.1413C58.005 32.9765 57.9612 32.8606 57.8865 32.7936C57.8118 32.7266 57.6933 32.6931 57.5285 32.6931H56.2509C56.0113 32.6931 55.8542 32.7395 55.7795 32.8271C55.7048 32.9172 55.6662 33.0744 55.6662 33.2985V42.641C55.6662 42.9089 55.7331 43.1124 55.8671 43.2464C56.001 43.3803 56.2174 43.4473 56.5162 43.4473H57.6805C57.9947 43.4473 58.2137 43.3803 58.3425 43.2464C58.4687 43.1124 58.5331 42.9115 58.5331 42.641V36.7707C58.5331 36.0391 58.7803 35.4596 59.2723 35.0346C59.7643 34.6096 60.3928 34.3958 61.1527 34.3958C61.6164 34.3958 62.0259 34.4782 62.384 34.643L62.5643 34.6868C62.6828 34.6868 62.7652 34.6121 62.8115 34.4627L63.216 33.1181C63.2443 33.028 63.2494 32.9507 63.2263 32.8837C63.2031 32.8168 63.1464 32.7524 63.0588 32.6931M74.6424 28.2137H73.5219C73.2231 28.2137 73.0067 28.2807 72.8728 28.4146C72.7388 28.5486 72.6719 28.7572 72.6719 29.0432V33.4118C71.9687 32.7112 70.8353 32.3583 69.2666 32.3583C68.1616 32.3583 67.2008 32.5978 66.3868 33.0744C65.5729 33.5535 64.9495 34.2206 64.5168 35.0784C64.084 35.9387 63.8676 36.9278 63.8676 38.0457C63.8676 41.8683 65.9876 43.7796 70.23 43.7796C71.2603 43.7796 72.2546 43.6405 73.2102 43.3648C74.1659 43.0892 74.9283 42.7415 75.495 42.3242V29.0406C75.495 28.7572 75.428 28.5486 75.2941 28.4121C75.1601 28.2781 74.9438 28.2112 74.645 28.2112M72.6719 41.2063C72.0897 41.5643 71.299 41.7446 70.2969 41.7446C69.0863 41.7446 68.1822 41.4613 67.5872 40.8946C66.9896 40.3279 66.6908 39.4006 66.6908 38.1179C66.6908 36.969 66.9587 36.0649 67.497 35.4081C68.0354 34.7512 68.8493 34.4215 69.9389 34.4215C70.7451 34.4215 71.402 34.6096 71.9094 34.9805C72.4169 35.354 72.6719 35.9078 72.6719 36.6393V41.2089V41.2063ZM80.2217 28.2137H79.2583C78.9003 28.2137 78.6221 28.3193 78.4289 28.528C78.2331 28.7366 78.1378 28.9916 78.1378 29.2904V29.7618C78.1378 30.0606 78.2357 30.3156 78.4289 30.5243C78.6221 30.7329 78.9003 30.8385 79.2583 30.8385H80.2217C80.5797 30.8385 80.8605 30.7329 81.0614 30.5243C81.2623 30.3156 81.3628 30.0606 81.3628 29.7618V29.2904C81.3628 28.9916 81.2623 28.7392 81.0614 28.528C80.8605 28.3193 80.5797 28.2137 80.2217 28.2137ZM80.3324 32.6931H79.1682C78.8694 32.6931 78.653 32.7601 78.519 32.894C78.3851 33.028 78.3181 33.2392 78.3181 33.5225V42.641C78.3181 42.9089 78.3851 43.1124 78.519 43.2464C78.653 43.3803 78.8694 43.4473 79.1682 43.4473H80.3324C80.6467 43.4473 80.8656 43.3803 80.9944 43.2464C81.1206 43.1124 81.185 42.9115 81.185 42.641V33.5225C81.185 33.2392 81.1181 33.0306 80.9841 32.894C80.8502 32.7601 80.6338 32.6931 80.335 32.6931M89.1805 32.3583C87.2383 32.3583 85.7417 32.8709 84.6882 33.8935C83.6347 34.9161 83.1092 36.3096 83.1092 38.0715C83.1092 39.8334 83.6347 41.2269 84.6882 42.2495C85.7417 43.2721 87.2383 43.7847 89.1805 43.7847C91.1226 43.7847 92.6218 43.2721 93.683 42.2495C94.7443 41.2269 95.2723 39.8334 95.2723 38.0715C95.2723 36.3096 94.7417 34.9161 93.683 33.8935C92.6218 32.8709 91.1201 32.3583 89.1805 32.3583ZM91.6017 40.7607C91.0479 41.3737 90.2417 41.6802 89.183 41.6802C88.1244 41.6802 87.3362 41.3711 86.7746 40.7504C86.2157 40.1296 85.9349 39.2383 85.9349 38.0741C85.9349 36.9098 86.2157 36.0237 86.7746 35.4184C87.3336 34.813 88.1372 34.5117 89.183 34.5117C90.2288 34.5117 91.0505 34.813 91.6017 35.4184C92.1556 36.0237 92.4312 36.9072 92.4312 38.0741C92.4312 39.2409 92.1556 40.1502 91.6017 40.7632" fill="#002D72"/>
</svg>
