<svg width="147" height="54" viewBox="0 0 147 54" fill="none" xmlns="http://www.w3.org/2000/svg">
<path d="M35.8792 50.5338C33.5446 48.2241 32.3789 44.9259 32.3789 40.6329C32.3789 36.3399 33.526 33.0417 35.8232 30.732C38.1205 28.4223 41.4001 27.269 45.6682 27.269C47.3748 27.269 48.9571 27.4462 50.4119 27.7975C51.8667 28.1488 53.0977 28.6493 54.1018 29.3021C54.3287 29.4513 54.4406 29.616 54.4406 29.7932C54.4406 29.9424 54.3785 30.1196 54.251 30.3186L53.1972 32.1247C53.0449 32.3516 52.9081 32.4635 52.7837 32.4635C52.6843 32.4635 52.5071 32.4013 52.2553 32.2739C50.673 31.3195 48.6524 30.8439 46.1935 30.8439C43.3585 30.8439 41.1358 31.6584 39.5318 33.2904C37.9246 34.9224 37.1226 37.3689 37.1226 40.6298C37.1226 43.8907 37.9495 46.4087 39.6064 48.0283C41.2633 49.6478 43.4953 50.4561 46.3085 50.4561C48.9198 50.4561 51.0647 49.968 52.7464 48.9888C52.9951 48.8645 53.1599 48.8023 53.2376 48.8023C53.3868 48.8023 53.5391 48.9142 53.6884 49.1411L54.8572 51.0996C54.9318 51.2519 54.9691 51.3762 54.9691 51.4757C54.9691 51.6249 54.8323 51.7897 54.5556 51.9638C52.6221 53.3191 49.7 53.9968 45.7832 53.9968C41.5182 53.9968 38.2169 52.8435 35.8823 50.5338" fill="#002D72"/>
<path d="M58.3517 51.7553C56.8968 50.2631 56.1694 48.1586 56.1694 45.451C56.1694 43.3434 56.6326 41.4782 57.5621 39.8618C58.4916 38.2422 59.8158 36.9956 61.5349 36.1159C63.2539 35.2393 65.2559 34.7979 67.5407 34.7979C70.727 34.7979 73.4253 35.5501 75.6355 37.0578V52.4174C75.6355 52.7935 75.5547 53.0578 75.3899 53.207C75.2251 53.3562 74.9454 53.4339 74.5413 53.4339H72.4709C72.1943 53.4339 71.986 53.3779 71.8492 53.266C71.7124 53.1541 71.6161 52.9707 71.5663 52.7189L71.2648 51.2517C70.4876 52.206 69.5271 52.9023 68.3862 53.3406C67.2423 53.779 65.8589 53.9997 64.2269 53.9997C61.768 53.9997 59.8096 53.2536 58.3548 51.7584M69.5551 49.4052C70.5716 48.628 71.0814 47.5991 71.0814 46.3183V38.9758C70.5529 38.6991 70.0214 38.5064 69.4805 38.3914C68.9396 38.2795 68.2805 38.2204 67.5034 38.2204C65.5201 38.2204 63.9285 38.8484 62.7224 40.1011C61.5162 41.357 60.9163 43.0885 60.9163 45.2956C60.9163 47.1017 61.3359 48.4322 62.1784 49.287C63.0177 50.1419 64.3046 50.5678 66.0361 50.5678C67.3666 50.5678 68.5385 50.1792 69.5551 49.402" fill="#002D72"/>
<path d="M80.4101 53.092C80.1832 52.865 80.0713 52.5262 80.0713 52.0754V36.377C80.0713 36.0009 80.1335 35.7366 80.2578 35.5874C80.3822 35.4351 80.6464 35.3605 81.0474 35.3605H83.1923C83.469 35.3605 83.6679 35.4165 83.7954 35.5315C83.9197 35.6434 83.9943 35.8392 84.0192 36.1159L84.1311 37.4712C85.6108 35.69 87.5568 34.7979 89.966 34.7979C91.0695 34.7979 91.9088 34.9875 92.487 35.3636C92.6362 35.4631 92.7326 35.5719 92.7699 35.6838C92.8072 35.7957 92.801 35.9294 92.7513 36.0786L92.0736 38.3385C91.999 38.5903 91.8591 38.7147 91.6601 38.7147L91.3586 38.6401C90.7555 38.3634 90.0654 38.2266 89.2883 38.2266C88.0075 38.2266 86.9537 38.5841 86.1268 39.2991C85.3 40.0141 84.8834 40.9871 84.8834 42.2181V52.0817C84.8834 52.5324 84.7777 52.8712 84.5632 53.0982C84.3487 53.3251 83.9788 53.437 83.4534 53.437H81.495C80.9945 53.437 80.6277 53.3251 80.4039 53.0982" fill="#002D72"/>
<path d="M93.8488 44.3601C93.8488 42.4763 94.2125 40.8163 94.9399 39.3739C95.6673 37.9315 96.7149 36.8062 98.0827 36.0042C99.4505 35.2022 101.064 34.8012 102.92 34.8012C105.556 34.8012 107.461 35.3918 108.643 36.5699V29.2305C108.643 28.7549 108.755 28.4037 108.981 28.1767C109.208 27.9498 109.572 27.8379 110.073 27.8379H111.953C112.454 27.8379 112.821 27.9498 113.044 28.1767C113.271 28.4037 113.383 28.7549 113.383 29.2305V51.5534C112.429 52.2559 111.148 52.8404 109.544 53.3035C107.937 53.7667 106.268 53.9999 104.536 53.9999C97.4082 53.9999 93.8457 50.7887 93.8457 44.3632M108.64 49.6696V41.9913C108.64 40.7603 108.211 39.834 107.359 39.206C106.504 38.5781 105.4 38.2641 104.045 38.2641C102.214 38.2641 100.846 38.8175 99.9417 39.921C99.0402 41.0246 98.5863 42.5447 98.5863 44.4751C98.5863 46.6325 99.0868 48.1899 100.094 49.1411C101.098 50.0955 102.615 50.5711 104.648 50.5711C106.33 50.5711 107.66 50.2695 108.64 49.6665" fill="#002D72"/>
<path d="M118.316 31.7111C117.99 31.3598 117.828 30.9339 117.828 30.4303V29.6407C117.828 29.1403 117.99 28.7113 118.316 28.36C118.643 28.0087 119.106 27.8315 119.709 27.8315H121.328C121.931 27.8315 122.401 28.0087 122.74 28.36C123.079 28.7113 123.25 29.1372 123.25 29.6407V30.4303C123.25 30.9339 123.082 31.3598 122.74 31.7111C122.401 32.0623 121.931 32.2395 121.328 32.2395H119.709C119.106 32.2395 118.643 32.0655 118.316 31.7111ZM118.468 53.092C118.242 52.8651 118.13 52.5263 118.13 52.0755V36.7532C118.13 36.2776 118.242 35.9232 118.468 35.6994C118.695 35.4725 119.059 35.3606 119.56 35.3606H121.518C122.019 35.3606 122.385 35.4725 122.609 35.6994C122.836 35.9263 122.948 36.2776 122.948 36.7532V52.0755C122.948 52.5263 122.842 52.8651 122.628 53.092C122.413 53.3189 122.043 53.4309 121.518 53.4309H119.56C119.056 53.4309 118.692 53.3189 118.468 53.092Z" fill="#002D72"/>
<path d="M128.839 51.4164C127.07 49.6974 126.184 47.3566 126.184 44.3972C126.184 41.4378 127.07 39.097 128.839 37.378C130.608 35.6589 133.122 34.7979 136.387 34.7979C139.651 34.7979 142.172 35.6589 143.953 37.378C145.734 39.097 146.626 41.4378 146.626 44.3972C146.626 47.3566 145.734 49.7005 143.953 51.4164C142.172 53.1355 139.647 53.9966 136.387 53.9966C133.126 53.9966 130.608 53.1386 128.839 51.4164ZM140.453 48.914C141.382 47.8851 141.845 46.3805 141.845 44.3972C141.845 42.4139 141.382 40.9529 140.453 39.9364C139.523 38.9199 138.168 38.4132 136.387 38.4132C134.605 38.4132 133.281 38.923 132.339 39.9364C131.397 40.9529 130.928 42.4388 130.928 44.3972C130.928 46.3556 131.397 47.854 132.339 48.8953C133.281 49.9367 134.627 50.459 136.387 50.459C138.146 50.459 139.523 49.9461 140.453 48.9171" fill="#002D72"/>
<path d="M28.1047 0.00660499C23.6687 -0.105305 21.4523 3.18981 21.4399 3.20846C20.1187 1.4521 17.7779 0.0283652 15.1139 0.000387796C11.2841 -0.0369154 8.01073 2.62094 7.19317 6.27354C5.89688 10.579 7.84287 15.7765 11.7908 19.0343C18.0795 24.2226 24.8842 24.3283 29.4445 24.1822C29.7305 24.1666 29.9605 23.9304 29.9605 23.6413C29.9605 23.4517 29.8642 23.2869 29.715 23.1905C29.715 23.1905 29.715 23.1905 29.7181 23.1874C29.2829 22.8766 28.1607 21.8974 28.2042 20.5265C28.2601 18.8105 29.2083 17.9681 29.572 17.5982C30.461 16.6967 31.8444 15.4408 33.2246 14.0544C35.1208 12.1457 35.9166 10.0785 35.9166 8.02679C35.9228 3.66232 32.3884 0.115406 28.1047 0.00660499Z" fill="#E40046"/>
<path d="M11.4088 51.6932C9.95397 50.2011 9.22656 48.0965 9.22656 45.3858C9.22656 43.2782 9.68974 41.4162 10.6192 39.7966C11.5487 38.177 12.8729 36.9304 14.592 36.0507C16.3111 35.171 18.313 34.7327 20.5978 34.7327C23.7841 34.7327 26.4824 35.4849 28.6926 36.9926V52.3522C28.6926 52.7283 28.6118 52.9926 28.447 53.1418C28.2823 53.291 28.0025 53.3687 27.5984 53.3687H25.5281C25.2514 53.3687 25.0462 53.3128 24.9063 53.2009C24.7696 53.0889 24.6732 52.9055 24.6235 52.6537L24.3219 51.1865C23.5448 52.1408 22.5842 52.8371 21.4434 53.2755C20.2994 53.7138 18.9161 53.9345 17.2841 53.9345C14.8252 53.9345 12.8667 53.1884 11.4119 51.6932M22.6122 49.34C23.6287 48.5628 24.1354 47.5339 24.1354 46.2531V38.9106C23.6069 38.634 23.0754 38.4412 22.5345 38.3262C21.9936 38.2143 21.3346 38.1583 20.5574 38.1583C18.5741 38.1583 16.9825 38.7863 15.7764 40.039C14.5702 41.2949 13.9703 43.0264 13.9703 45.2335C13.9703 47.0396 14.3899 48.3701 15.2324 49.225C16.0717 50.0767 17.3587 50.5057 19.0901 50.5057C20.4206 50.5057 21.5926 50.1171 22.6091 49.34" fill="#002D72"/>
<path d="M6.72079 49.8686C6.50008 49.822 6.31046 49.7598 6.14259 49.6883C5.79443 49.536 5.5302 49.3402 5.34368 49.0977C5.15717 48.8583 5.03282 48.563 4.96754 48.2117C4.90226 47.8605 4.86807 47.4688 4.86807 47.0305L4.85874 29.3892C4.85874 29.3581 4.85563 29.3332 4.85252 29.3021V29.2244C4.85252 29.1871 4.84631 29.1529 4.84009 29.1156C4.80279 28.7768 4.69709 28.5125 4.51679 28.3322C4.28987 28.1053 3.92305 27.9934 3.41635 27.9934H1.44239C0.935688 27.9934 0.568874 28.1053 0.341946 28.3322C0.158539 28.5157 0.0528462 28.783 0.015543 29.128C0.0124344 29.1591 0 29.184 0 29.2151V29.3705C0 29.3705 0 29.3798 0 29.3861V44.7083C0 44.783 0.0093258 44.8482 0.015543 44.9166V48.019C0.0186516 48.9391 0.11191 49.766 0.295317 50.4997C0.481833 51.2333 0.826887 51.8581 1.33981 52.371C1.84962 52.884 2.54594 53.285 3.42568 53.5679C4.13755 53.7979 5.36855 53.9409 6.42858 53.9968C6.87 54.0217 7.26169 53.7108 7.33319 53.2756L7.39536 50.854C7.47307 50.3971 7.17154 49.965 6.71768 49.8686" fill="#002D72"/>
</svg>
