<svg width="24" height="24" viewBox="0 0 24 24" fill="none" xmlns="http://www.w3.org/2000/svg">
<path d="M18.5476 3.77246H20.4846C21.3214 3.77246 21.9997 4.39056 21.9997 5.15322V17.2127L16.7471 21.9997H3.51509C2.67828 21.9997 2 21.3816 2 20.6189V5.15322C2 4.39056 2.67828 3.77246 3.51509 3.77246H5.36437" stroke="white" stroke-width="1.5" stroke-linecap="round" stroke-linejoin="round"/>
<path d="M7.3418 3.77246H16.7457" stroke="white" stroke-width="1.5" stroke-linecap="round" stroke-linejoin="round"/>
<path d="M7.41455 7.20154C12.3078 7.2115 17.1415 7.2115 22.0002 7.20154" stroke="white" stroke-width="1.5" stroke-linecap="round" stroke-linejoin="round"/>
<path d="M2 7.20154C3.12321 7.2115 4.26587 7.2115 5.42106 7.20154" stroke="white" stroke-width="1.5" stroke-linecap="round" stroke-linejoin="round"/>
<path d="M6.37731 5.45053H6.37302C5.88524 5.45053 5.48975 5.08837 5.48975 4.6417V2.80884C5.48975 2.36217 5.88524 2 6.37302 2H6.37731C6.86509 2 7.26059 2.36217 7.26059 2.80884V4.6417C7.26059 5.08837 6.86509 5.45053 6.37731 5.45053Z" stroke="white" stroke-width="1.5" stroke-linecap="round" stroke-linejoin="round"/>
<path d="M17.6268 5.45053H17.6225C17.1348 5.45053 16.7393 5.08837 16.7393 4.6417V2.80884C16.7393 2.36217 17.1348 2 17.6225 2H17.6268C18.1146 2 18.5101 2.36217 18.5101 2.80884V4.6417C18.5101 5.08837 18.1146 5.45053 17.6268 5.45053Z" stroke="white" stroke-width="1.5" stroke-linecap="round" stroke-linejoin="round"/>
<path d="M16.7476 21.9999V18.5938C16.7476 17.8311 17.4258 17.213 18.2626 17.213H22.0001L16.7476 21.9999Z" stroke="white" stroke-width="1.5" stroke-linecap="round" stroke-linejoin="round"/>
<path d="M16.1566 16.131C16.8784 15.3276 17.4077 14.3585 17.4242 13.2379C17.4476 11.6489 16.156 10.3608 14.5918 10.3608C13.4343 10.3608 12.4393 11.0662 11.9999 12.0766C11.5606 11.0662 10.5653 10.3608 9.40811 10.3608C7.84391 10.3608 6.57568 11.6489 6.57568 13.2379C6.57568 16.875 11.9999 18.8838 11.9999 18.8838C11.9999 18.8838 13.4775 18.3234 14.8904 17.2698" stroke="white" stroke-width="1.5" stroke-linecap="round" stroke-linejoin="round"/>
</svg>
