<svg width="24" height="24" viewBox="0 0 24 24" fill="none" xmlns="http://www.w3.org/2000/svg">
<path d="M14.3333 10.8H9.66667C9.04783 10.8 8.45434 10.5471 8.01675 10.0971C7.57917 9.64697 7.33333 9.03652 7.33333 8.4C7.33333 7.76348 7.57917 7.15303 8.01675 6.70294C8.45434 6.25286 9.04783 6 9.66667 6H15.5C15.8094 6 16.1062 6.12643 16.325 6.35147C16.5437 6.57652 16.6667 6.88174 16.6667 7.2C16.6667 7.51826 16.7896 7.82348 17.0084 8.04853C17.2272 8.27357 17.5239 8.4 17.8333 8.4C18.1428 8.4 18.4395 8.27357 18.6583 8.04853C18.8771 7.82348 19 7.51826 19 7.2C19 6.24522 18.6313 5.32955 17.9749 4.65442C17.3185 3.97928 16.4283 3.6 15.5 3.6H13.1667V1.2C13.1667 0.88174 13.0437 0.576515 12.825 0.351472C12.6062 0.126428 12.3094 0 12 0C11.6906 0 11.3938 0.126428 11.175 0.351472C10.9562 0.576515 10.8333 0.88174 10.8333 1.2V3.6H9.66667C8.42899 3.6 7.242 4.10571 6.36683 5.00589C5.49167 5.90606 5 7.12696 5 8.4C5 9.67304 5.49167 10.8939 6.36683 11.7941C7.242 12.6943 8.42899 13.2 9.66667 13.2H14.3333C14.9522 13.2 15.5457 13.4529 15.9832 13.9029C16.4208 14.353 16.6667 14.9635 16.6667 15.6C16.6667 16.2365 16.4208 16.847 15.9832 17.2971C15.5457 17.7471 14.9522 18 14.3333 18H8.5C8.19058 18 7.89383 17.8736 7.67504 17.6485C7.45625 17.4235 7.33333 17.1183 7.33333 16.8C7.33333 16.4817 7.21042 16.1765 6.99162 15.9515C6.77283 15.7264 6.47609 15.6 6.16667 15.6C5.85725 15.6 5.5605 15.7264 5.34171 15.9515C5.12292 16.1765 5 16.4817 5 16.8C5 17.7548 5.36875 18.6705 6.02513 19.3456C6.6815 20.0207 7.57174 20.4 8.5 20.4H10.8333V22.8C10.8333 23.1183 10.9562 23.4235 11.175 23.6485C11.3938 23.8736 11.6906 24 12 24C12.3094 24 12.6062 23.8736 12.825 23.6485C13.0437 23.4235 13.1667 23.1183 13.1667 22.8V20.4H14.3333C15.571 20.4 16.758 19.8943 17.6332 18.9941C18.5083 18.0939 19 16.873 19 15.6C19 14.327 18.5083 13.1061 17.6332 12.2059C16.758 11.3057 15.571 10.8 14.3333 10.8V10.8Z" fill="white"/>
</svg>
